HIERARCHY
ROOT Hips
{
	OFFSET -3.958830 18.904000 13.208200
	CHANNELS 6 Xposition Yposition Zposition Zrotation Yrotation Xrotation 
	JOINT LHipJoint
	{
		OFFSET 0.000000 0.000000 0.000000
		CHANNELS 3 Zrotation Yrotation Xrotation
		JOINT LeftUpLeg
		{
			OFFSET 1.800000 -1.400000 0.085000
			CHANNELS 3 Zrotation Yrotation Xrotation
			JOINT LeftLeg
			{
				OFFSET 2.215000 -6.000000 0.000000
				CHANNELS 3 Zrotation Yrotation Xrotation
				JOINT LeftFoot
				{
					OFFSET 2.500000 -6.900000 0.000000
					CHANNELS 3 Zrotation Yrotation Xrotation
					JOINT LeftToeBase
					{
						OFFSET 0.200000 -0.500000 1.950000
						CHANNELS 3 Zrotation Yrotation Xrotation
						End Site
						{
							OFFSET 0.000000 0.000000 0.000000
						}
					}
				}
			}
		}
	}
	JOINT RHipJoint
	{
		OFFSET 0.000000 0.000000 0.000000
		CHANNELS 3 Zrotation Yrotation Xrotation
		JOINT RightUpLeg
		{
			OFFSET -1.800000 -1.400000 0.085000
			CHANNELS 3 Zrotation Yrotation Xrotation
			JOINT RightLeg
			{
				OFFSET -2.215000 -6.000000 0.000000
				CHANNELS 3 Zrotation Yrotation Xrotation
				JOINT RightFoot
				{
					OFFSET -2.500000 -6.900000 0.000000
					CHANNELS 3 Zrotation Yrotation Xrotation
					JOINT RightToeBase
					{
						OFFSET -0.200000 -0.500000 1.950000
						CHANNELS 3 Zrotation Yrotation Xrotation
						End Site
						{
							OFFSET 0.000000 0.000000 0.000000
						}
					}
				}
			}
		}
	}
	JOINT LowerBack
	{
		OFFSET 0.000000 0.000000 0.000000
		CHANNELS 3 Zrotation Yrotation Xrotation
		JOINT Spine
		{
			OFFSET -0.087000 1.940000 -0.288900
			CHANNELS 3 Zrotation Yrotation Xrotation
			JOINT Spine1
			{
				OFFSET 0.000000 1.950000 0.060000
				CHANNELS 3 Zrotation Yrotation Xrotation
				JOINT Neck
				{
					OFFSET 0.000000 0.000000 0.000000
					CHANNELS 3 Zrotation Yrotation Xrotation
					JOINT Neck1
					{
						OFFSET 0.000000 1.600000 0.340000
						CHANNELS 3 Zrotation Yrotation Xrotation
						JOINT Head
						{
							OFFSET 0.000000 1.667000 -0.240000
							CHANNELS 3 Zrotation Yrotation Xrotation
							End Site
							{
								OFFSET 0.000000 0.000000 0.000000
							}
						}
					}
				}
				JOINT LeftShoulder
				{
					OFFSET 0.000000 0.000000 0.000000
					CHANNELS 3 Zrotation Yrotation Xrotation
					JOINT LeftArm
					{
						OFFSET 2.700000 1.550000 -0.730000
						CHANNELS 3 Zrotation Yrotation Xrotation
						JOINT LeftForeArm
						{
							OFFSET 5.450000 0.000000 0.000000
							CHANNELS 3 Zrotation Yrotation Xrotation
							JOINT LeftHand
							{
								OFFSET 3.450000 0.000000 0.000000
								CHANNELS 3 Zrotation Yrotation Xrotation
								JOINT LeftHandIndex1
								{
									OFFSET 0.750000 0.000000 0.000000
									CHANNELS 3 Zrotation Yrotation Xrotation
									End Site
									{
										OFFSET 0.000000 0.000000 0.000000
									}
								}
							}
						}
					}
				}
				JOINT RightShoulder
				{
					OFFSET 0.000000 0.000000 0.000000
					CHANNELS 3 Zrotation Yrotation Xrotation
					JOINT RightArm
					{
						OFFSET -2.700000 1.550000 -0.730000
						CHANNELS 3 Zrotation Yrotation Xrotation
						JOINT RightForeArm
						{
							OFFSET -5.450000 0.000000 0.000000
							CHANNELS 3 Zrotation Yrotation Xrotation
							JOINT RightHand
							{
								OFFSET -3.450000 0.000000 0.000000
								CHANNELS 3 Zrotation Yrotation Xrotation
								JOINT RightHandIndex1
								{
									OFFSET -0.750000 0.000000 0.000000
									CHANNELS 3 Zrotation Yrotation Xrotation
									End Site
									{
										OFFSET 0.000000 0.000000 0.000000
									}
								}
							}
						}
					}
				}
			}
		}
	}
}
MOTION
Frames: 9
Frame Time: 0.016667
0.459180 17.080150 -1.255220 -2.362880 9.775505 -5.498645 -15.667620 13.677223 3.906676 1.589493 2.206938 7.368049 -10.253290 4.988042 -4.417043 0.274576 5.150801 2.999676 0.145960 -0.056230 0.116790 17.778844 -9.721650 3.227187 -2.105134 2.513502 -24.855061 5.755715 -2.254343 1.938230 0.047043 -1.585256 3.879235 -0.012960 0.126410 0.124870 -2.353263 -3.759430 -8.791390 1.582798 -2.339342 17.855348 1.979379 -2.121740 -0.705648 2.915607 0.275728 -15.150560 -3.939911 0.551402 46.039283 -2.393120 0.420720 -3.866710 -16.720122 -16.708339 5.370666 5.445367 -3.636160 -0.908267 10.091170 -10.183261 -0.575450 -3.930376 2.632138 0.413220 0.059450 0.034060 0.087990 11.809410 17.470164 11.186595 -0.861328 0.421264 -1.918671 -11.656775 2.341837 -0.024701 2.576549 -1.080714 -0.154300 0.180200 0.062640 -0.168510 
0.459430 17.079520 -1.253340 -2.351382 9.780175 -5.470728 -15.668015 13.674655 3.906248 1.580436 2.208793 7.359763 -10.276898 4.989650 -4.416863 0.276450 5.151714 3.000477 0.144840 -0.057790 0.115310 17.778632 -9.721511 3.228454 -2.114684 2.512811 -24.859627 5.769609 -2.252651 1.907300 0.046966 -1.586945 3.879010 -0.014140 0.128160 0.125770 -2.352289 -3.754554 -8.791946 1.558007 -2.328176 17.806221 1.998566 -2.121065 -0.704742 2.912336 0.283178 -15.166536 -3.920517 0.547875 46.036322 -2.374730 0.411470 -3.799020 -16.704616 -16.715826 5.389213 5.398414 -3.587578 -0.907040 10.120416 -10.237029 -0.576903 -3.930106 2.633932 0.412240 0.060410 0.033530 0.089060 11.800916 17.475472 11.193269 -0.879564 0.418921 -1.910427 -11.601878 2.282938 -0.019816 2.578464 -1.080388 -0.154050 0.179900 0.062740 -0.167500 
0.459900 17.078430 -1.249820 -2.345083 9.774064 -5.415446 -15.667915 13.668587 3.904101 1.571352 2.209803 7.341340 -10.304642 4.991541 -4.415800 0.279620 5.151128 3.002252 0.141700 -0.060530 0.111820 17.779407 -9.721217 3.231989 -2.108295 2.518492 -24.871772 5.792628 -2.247274 1.845719 0.048236 -1.589080 3.879454 -0.016120 0.131390 0.125780 -2.352996 -3.742377 -8.792366 1.538102 -2.303706 17.703842 2.022422 -2.110325 -0.688443 2.903276 0.295646 -15.188811 -3.884237 0.538151 46.004450 -2.337300 0.393680 -3.672230 -16.673713 -16.730092 5.416142 5.325320 -3.535678 -0.906576 10.165202 -10.299141 -0.578027 -3.930722 2.635976 0.409010 0.062450 0.031460 0.089890 11.787392 17.484020 11.205402 -0.915947 0.418027 -1.891526 -11.488195 2.143991 -0.010404 2.583034 -1.079177 -0.153810 0.179730 0.063500 -0.165490 
0.460930 17.077670 -1.245700 -2.330525 9.762684 -5.369923 -15.668868 13.666179 3.902725 1.550009 2.215042 7.331004 -10.313566 4.995223 -4.394880 0.282682 5.147743 3.003053 0.140100 -0.061870 0.111060 17.778507 -9.721357 3.235645 -2.094226 2.520821 -24.868702 5.785552 -2.238301 1.769735 0.048274 -1.588639 3.879691 -0.018380 0.130910 0.126330 -2.349971 -3.735170 -8.794509 1.502742 -2.263178 17.635802 2.053151 -2.084039 -0.711074 2.913151 0.313701 -15.233680 -3.849278 0.522949 46.033279 -2.343700 0.394700 -3.598010 -16.649489 -16.753308 5.445665 5.244191 -3.475163 -0.909206 10.219185 -10.383404 -0.579270 -3.929455 2.638380 0.407250 0.062420 0.031660 0.089280 11.745711 17.511531 11.238729 -0.932506 0.400626 -1.868803 -11.356273 1.943700 0.004947 2.589856 -1.076846 -0.151970 0.177680 0.063540 -0.164520 
0.461900 17.076840 -1.240300 -2.336972 9.757940 -5.313751 -15.669387 13.665077 3.901008 1.543396 2.213253 7.310538 -10.299991 4.995259 -4.373499 0.284214 5.143918 3.003885 0.138760 -0.064110 0.109540 17.777837 -9.720859 3.240745 -2.053703 2.531121 -24.862797 5.763687 -2.227087 1.684394 0.048066 -1.587574 3.880381 -0.020950 0.130400 0.128200 -2.348107 -3.730370 -8.798289 1.502509 -2.228244 17.561189 2.073786 -2.052941 -0.760919 2.930554 0.321230 -15.286551 -3.840658 0.505549 46.058860 -2.369030 0.383440 -3.517770 -16.637105 -16.780069 5.471769 5.176463 -3.417483 -0.908713 10.255105 -10.462410 -0.580150 -3.928443 2.641744 0.406570 0.062530 0.031850 0.089380 11.700925 17.551788 11.284317 -0.997329 0.356866 -1.833144 -11.124058 1.719858 0.025081 2.596236 -1.073474 -0.150140 0.174750 0.064140 -0.164000 
0.463230 17.076520 -1.234700 -2.365275 9.757992 -5.269316 -15.669509 13.666284 3.899396 1.559726 2.206309 7.287274 -10.279658 4.996612 -4.345234 0.284279 5.141698 3.004091 0.135600 -0.068190 0.106770 17.777044 -9.720161 3.246484 -1.999044 2.544841 -24.838576 5.742417 -2.216717 1.600014 0.048674 -1.587636 3.880762 -0.023860 0.130600 0.129820 -2.346922 -3.729341 -8.803895 1.542623 -2.203453 17.505693 2.077985 -2.018520 -0.833442 2.958100 0.333684 -15.342031 -3.827182 0.478621 46.100131 -2.425880 0.371070 -3.410840 -16.665091 -16.819499 5.491573 5.149448 -3.361604 -0.908744 10.260701 -10.533239 -0.578517 -3.928658 2.643559 0.406160 0.063470 0.031250 0.088600 11.674244 17.602334 11.336897 -1.072354 0.284002 -1.801664 -10.908696 1.527679 0.042920 2.601432 -1.069783 -0.149590 0.172020 0.066030 -0.163810 
0.464770 17.076800 -1.229220 -2.415815 9.731257 -5.240509 -15.668448 13.670137 3.898269 1.603977 2.194079 7.268977 -10.265138 5.001856 -4.302658 0.286617 5.139263 3.004467 0.136380 -0.069030 0.108040 17.776719 -9.718787 3.253930 -1.927595 2.565518 -24.803103 5.733529 -2.206557 1.517758 0.046952 -1.585872 3.881701 -0.026590 0.128060 0.132240 -2.348001 -3.733094 -8.812592 1.635431 -2.189064 17.491782 2.059870 -1.973488 -0.949302 2.991302 0.318411 -15.403979 -3.883867 0.461734 46.193808 -2.490300 0.348120 -3.352450 -16.709669 -16.847935 5.503848 5.142537 -3.301683 -0.907995 10.239102 -10.583312 -0.573513 -3.926088 2.645914 0.406960 0.062160 0.033250 0.088780 11.655842 17.668322 11.396322 -1.148650 0.197489 -1.774067 -10.711821 1.375442 0.058889 2.606934 -1.066701 -0.146650 0.168310 0.064850 -0.163640 
0.466250 17.076620 -1.223490 -2.483608 9.695158 -5.215372 -15.666645 13.673630 3.896171 1.664324 2.178615 7.248295 -10.246109 5.007622 -4.257571 0.286469 5.138182 3.004571 0.134940 -0.071650 0.106690 17.777451 -9.717411 3.261329 -1.834420 2.592804 -24.769339 5.717065 -2.197159 1.453177 0.046834 -1.583327 3.883871 -0.029070 0.127280 0.132610 -2.351400 -3.736122 -8.820000 1.753641 -2.179864 17.469476 2.038264 -1.928732 -1.032062 3.016911 0.292993 -15.466641 -3.953997 0.460423 46.257359 -2.526380 0.323660 -3.297760 -16.716744 -16.873318 5.523708 5.113568 -3.242682 -0.899244 10.195118 -10.622036 -0.567570 -3.924418 2.646075 0.408210 0.061430 0.033390 0.088610 11.613492 17.735015 11.452402 -1.207089 0.133968 -1.751798 -10.538178 1.239946 0.072954 2.610784 -1.062371 -0.146300 0.166910 0.065730 -0.163870 
0.467640 17.076240 -1.217280 -2.533320 9.650814 -5.166244 -15.664963 13.674070 3.893893 1.695428 2.167526 7.221071 -10.215563 5.007381 -4.231758 0.287910 5.132630 3.005718 0.132820 -0.073990 0.104280 17.778353 -9.716213 3.269411 -1.768048 2.617677 -24.753982 5.734667 -2.189672 1.381397 0.046953 -1.581856 3.885608 -0.032170 0.126350 0.132650 -2.354578 -3.733808 -8.826974 1.840343 -2.156425 17.410229 2.038163 -1.880753 -1.109548 3.027694 0.266333 -15.528982 -4.029226 0.456566 46.327801 -2.528590 0.282650 -3.223650 -16.697851 -16.895034 5.547802 5.070917 -3.201507 -0.884846 10.105790 -10.637668 -0.556026 -3.922827 2.646678 0.407830 0.060480 0.033390 0.088080 11.578938 17.792870 11.504534 -1.256177 0.058101 -1.731213 -10.389505 1.140407 0.085574 2.614822 -1.058400 -0.144640 0.164950 0.066790 -0.163120 
